TITLE ""
FILE "DISC2Track27.mp3" MP3
  TRACK 01 AUDIO
    TITLE "DISC2Track27_01"
    INDEX 01 00:00:00
  TRACK 02 AUDIO
    TITLE "DISC2Track27_02"
    INDEX 01 00:03:48
  TRACK 03 AUDIO
    TITLE "DISC2Track27_03"
    INDEX 01 00:04:08
  TRACK 04 AUDIO
    TITLE "DISC2Track27_04"
    INDEX 01 00:07:38
  TRACK 05 AUDIO
    TITLE "DISC2Track27_05"
    INDEX 01 00:11:18
  TRACK 06 AUDIO
    TITLE "DISC2Track27_06"
    INDEX 01 00:14:63
  TRACK 07 AUDIO
    TITLE "DISC2Track27_07"
    INDEX 01 00:15:12
  TRACK 08 AUDIO
    TITLE "DISC2Track27_08"
    INDEX 01 00:19:19
  TRACK 09 AUDIO
    TITLE "DISC2Track27_09"
    INDEX 01 00:22:47
  TRACK 10 AUDIO
    TITLE "DISC2Track27_10"
    INDEX 01 00:25:65
  TRACK 11 AUDIO
    TITLE "DISC2Track27_11"
    INDEX 01 00:26:18
  TRACK 12 AUDIO
    TITLE "DISC2Track27_12"
    INDEX 01 00:31:09
  TRACK 13 AUDIO
    TITLE "DISC2Track27_13"
    INDEX 01 00:36:36
  TRACK 14 AUDIO
    TITLE "DISC2Track27_14"
    INDEX 01 00:41:50
  TRACK 15 AUDIO
    TITLE "DISC2Track27_15"
    INDEX 01 00:42:03
  TRACK 16 AUDIO
    TITLE "DISC2Track27_16"
    INDEX 01 00:46:44
  TRACK 17 AUDIO
    TITLE "DISC2Track27_17"
    INDEX 01 00:49:66
  TRACK 18 AUDIO
    TITLE "DISC2Track27_18"
    INDEX 01 00:53:05
  TRACK 19 AUDIO
    TITLE "DISC2Track27_19"
    INDEX 01 00:53:24
  TRACK 20 AUDIO
    TITLE "DISC2Track27_20"
    INDEX 01 00:57:47
  TRACK 21 AUDIO
    TITLE "DISC2Track27_21"
    INDEX 01 01:02:41
  TRACK 22 AUDIO
    TITLE "DISC2Track27_22"
    INDEX 01 01:07:28
  TRACK 23 AUDIO
    TITLE "DISC2Track27_23"
    INDEX 01 01:07:50
  TRACK 24 AUDIO
    TITLE "DISC2Track27_24"
    INDEX 01 01:12:06
  TRACK 25 AUDIO
    TITLE "DISC2Track27_25"
    INDEX 01 01:16:35
  TRACK 26 AUDIO
    TITLE "DISC2Track27_26"
    INDEX 01 01:20:64
  TRACK 27 AUDIO
    TITLE "DISC2Track27_27"
    INDEX 01 01:21:15
  TRACK 28 AUDIO
    TITLE "DISC2Track27_28"
    INDEX 01 01:25:59
  TRACK 29 AUDIO
    TITLE "DISC2Track27_29"
    INDEX 01 01:30:10
  TRACK 30 AUDIO
    TITLE "DISC2Track27_30"
    INDEX 01 01:34:25
  TRACK 31 AUDIO
    TITLE "DISC2Track27_31"
    INDEX 01 01:34:51
  TRACK 32 AUDIO
    TITLE "DISC2Track27_32"
    INDEX 01 01:39:15
  TRACK 33 AUDIO
    TITLE "DISC2Track27_33"
    INDEX 01 01:43:04
  TRACK 34 AUDIO
    TITLE "DISC2Track27_34"
    INDEX 01 01:46:69
  TRACK 35 AUDIO
    TITLE "DISC2Track27_35"
    INDEX 01 01:47:22
  TRACK 36 AUDIO
    TITLE "DISC2Track27_36"
    INDEX 01 01:52:17
  TRACK 37 AUDIO
    TITLE "DISC2Track27_37"
    INDEX 01 01:57:20
  TRACK 38 AUDIO
    TITLE "DISC2Track27_38"
    INDEX 01 02:02:14
  TRACK 39 AUDIO
    TITLE "DISC2Track27_39"
    INDEX 01 02:02:39
  TRACK 40 AUDIO
    TITLE "DISC2Track27_40"
    INDEX 01 02:08:02
  TRACK 41 AUDIO
    TITLE "DISC2Track27_41"
    INDEX 01 02:12:47
  TRACK 42 AUDIO
    TITLE "DISC2Track27_42"
    INDEX 01 02:17:09
